ply
format ascii 1.0
comment VCGLIB generated
element vertex 216
property float x
property float y
property float z
property float nx
property float ny
property float nz
property float texture_u
property float texture_v
element face 72
property list uchar int vertex_indices
end_header
0 -1.967012e-07 1.5 0 -1.788077e-07 1 0.164309 0.499023
0 1.967012e-07 -1.5 0 1.311342e-07 -1 0.164309 0.999023
2 1.967012e-07 -1.5 1 0 0 0.000977 0.835691
1.969615 0.3472965 -1.5 0.9848078 0.1736481 2.27712e-08 0.000977 0.999023
1.879385 0.6840405 -1.5 0.9396926 0.3420202 4.485054e-08 0.002358 0.834310
1.732051 1 -1.5 0.8660253 0.5000001 6.55671e-08 0.167643 0.999023
1.532089 1.285575 -1.5 0.7660445 0.6427876 8.429141e-08 0.332357 0.834310
1.285575 1.532089 -1.5 0.6427875 0.7660445 1.004546e-07 0.334310 0.999023
0.9999999 1.732051 -1.5 0.5000001 0.8660254 1.135655e-07 0.499023 0.834310
0.6840402 1.879385 -1.5 0.3420202 0.9396926 1.232258e-07 0.500977 0.999023
0.3472964 1.969615 -1.5 0.1736481 0.9848078 1.29142e-07 0.665690 0.834310
1.224647e-16 2 -1.5 0 1 1.311342e-07 0.830976 0.999023
-0.3472964 1.969615 -1.5 -0.1736481 0.9848078 1.29142e-07 0.832357 0.834310
-0.6840402 1.879385 -1.5 -0.3420202 0.9396926 1.232258e-07 0.997642 0.999023
-0.9999999 1.732051 -1.5 -0.5000001 0.8660254 1.135655e-07 0.999023 0.834310
-1.285575 1.532089 -1.5 -0.6427875 0.7660445 1.004546e-07 0.000977 0.832357
-1.532089 1.285575 -1.5 -0.7660445 0.6427876 8.429141e-08 0.165690 0.667643
-1.732051 1 -1.5 -0.8660253 0.5000001 6.55671e-08 0.167643 0.832357
-1.879385 0.6840405 -1.5 -0.9396926 0.3420202 4.485054e-08 0.332357 0.667643
-1.969615 0.3472965 -1.5 -0.9848078 0.1736481 2.27712e-08 0.334310 0.832357
-2 1.967012e-07 -1.5 -1 0 0 0.335691 0.667643
-1.969615 -0.3472962 -1.5 -0.9848078 -0.1736481 -2.27712e-08 0.500977 0.832357
-1.879385 -0.6840401 -1.5 -0.9396926 -0.3420202 -4.485054e-08 0.502358 0.667643
-1.732051 -0.9999998 -1.5 -0.8660253 -0.5000001 -6.55671e-08 0.667643 0.832357
-1.532089 -1.285575 -1.5 -0.7660445 -0.6427876 -8.429141e-08 0.832357 0.667643
-1.285575 -1.532089 -1.5 -0.6427875 -0.7660445 -1.004546e-07 0.834310 0.832357
-0.9999999 -1.732051 -1.5 -0.5000001 -0.8660254 -1.135655e-07 0.999023 0.667643
-0.6840402 -1.879385 -1.5 -0.3420202 -0.9396926 -1.232258e-07 0.000977 0.665690
-0.3472964 -1.969615 -1.5 -0.1736481 -0.9848078 -1.29142e-07 0.165690 0.500977
-3.67394e-16 -2 -1.5 0 -1 -1.311342e-07 0.330976 0.665690
0.3472964 -1.969615 -1.5 0.1736481 -0.9848078 -1.29142e-07 0.332357 0.500977
0.6840402 -1.879385 -1.5 0.3420202 -0.9396926 -1.232258e-07 0.497642 0.665690
0.9999999 -1.732051 -1.5 0.5000001 -0.8660254 -1.135655e-07 0.499023 0.500977
1.285575 -1.532089 -1.5 0.6427875 -0.7660445 -1.004546e-07 0.500977 0.665690
1.532089 -1.285575 -1.5 0.7660445 -0.6427876 -8.429141e-08 0.665690 0.500977
1.732051 -0.9999998 -1.5 0.8660253 -0.5000001 -6.55671e-08 0.667643 0.665690
1.879385 -0.6840401 -1.5 0.9396926 -0.3420202 -4.485054e-08 0.832357 0.500977
1.969615 -0.3472962 -1.5 0.9848078 -0.1736481 -2.27712e-08 0.834310 0.665690
0 1.967012e-07 -1.5 0 1.311342e-07 -1 0.165690 0.997642
1.969615 0.3472965 -1.5 0.9848078 0.1736481 2.27712e-08 0.165690 0.834310
0 1.967012e-07 -1.5 0 1.311342e-07 -1 0.330976 0.999023
1.879385 0.6840405 -1.5 0.9396926 0.3420202 4.485054e-08 0.167643 0.835691
0 1.967012e-07 -1.5 0 1.311342e-07 -1 0.169024 0.834310
1.732051 1 -1.5 0.8660253 0.5000001 6.55671e-08 0.332357 0.997642
0 1.967012e-07 -1.5 0 1.311342e-07 -1 0.497642 0.999023
1.532089 1.285575 -1.5 0.7660445 0.6427876 8.429141e-08 0.334310 0.835691
0 1.967012e-07 -1.5 0 1.311342e-07 -1 0.335691 0.834310
1.285575 1.532089 -1.5 0.6427875 0.7660445 1.004546e-07 0.499023 0.997642
0 1.967012e-07 -1.5 0 1.311342e-07 -1 0.664309 0.999023
0.9999999 1.732051 -1.5 0.5000001 0.8660254 1.135655e-07 0.500977 0.835691
0 1.967012e-07 -1.5 0 1.311342e-07 -1 0.502358 0.834310
0.6840402 1.879385 -1.5 0.3420202 0.9396926 1.232258e-07 0.665690 0.997642
0 1.967012e-07 -1.5 0 1.311342e-07 -1 0.667643 0.835691
0.3472964 1.969615 -1.5 0.1736481 0.9848078 1.29142e-07 0.667643 0.999023
0 1.967012e-07 -1.5 0 1.311342e-07 -1 0.669024 0.834310
1.224647e-16 2 -1.5 0 1 1.311342e-07 0.832357 0.997642
0 1.967012e-07 -1.5 0 1.311342e-07 -1 0.834310 0.835691
-0.3472964 1.969615 -1.5 -0.1736481 0.9848078 1.29142e-07 0.834310 0.999023
0 1.967012e-07 -1.5 0 1.311342e-07 -1 0.835691 0.834310
-0.6840402 1.879385 -1.5 -0.3420202 0.9396926 1.232258e-07 0.999023 0.997642
0 1.967012e-07 -1.5 0 1.311342e-07 -1 0.164309 0.832357
-0.9999999 1.732051 -1.5 -0.5000001 0.8660254 1.135655e-07 0.000977 0.669024
0 1.967012e-07 -1.5 0 1.311342e-07 -1 0.002358 0.667643
-1.285575 1.532089 -1.5 -0.6427875 0.7660445 1.004546e-07 0.165690 0.830976
0 1.967012e-07 -1.5 0 1.311342e-07 -1 0.330976 0.832357
-1.532089 1.285575 -1.5 -0.7660445 0.6427876 8.429141e-08 0.167643 0.669024
0 1.967012e-07 -1.5 0 1.311342e-07 -1 0.169024 0.667643
-1.732051 1 -1.5 -0.8660253 0.5000001 6.55671e-08 0.332357 0.830976
0 1.967012e-07 -1.5 0 1.311342e-07 -1 0.497642 0.832357
-1.879385 0.6840405 -1.5 -0.9396926 0.3420202 4.485054e-08 0.334310 0.669024
0 1.967012e-07 -1.5 0 1.311342e-07 -1 0.499023 0.830976
-1.969615 0.3472965 -1.5 -0.9848078 0.1736481 2.27712e-08 0.499023 0.667643
0 1.967012e-07 -1.5 0 1.311342e-07 -1 0.664309 0.832357
-2 1.967012e-07 -1.5 -1 0 0 0.500977 0.669024
0 1.967012e-07 -1.5 0 1.311342e-07 -1 0.665690 0.830976
-1.969615 -0.3472962 -1.5 -0.9848078 -0.1736481 -2.27712e-08 0.665690 0.667643
0 1.967012e-07 -1.5 0 1.311342e-07 -1 0.830976 0.832357
-1.879385 -0.6840401 -1.5 -0.9396926 -0.3420202 -4.485054e-08 0.667643 0.669024
0 1.967012e-07 -1.5 0 1.311342e-07 -1 0.669024 0.667643
-1.732051 -0.9999998 -1.5 -0.8660253 -0.5000001 -6.55671e-08 0.832357 0.830976
0 1.967012e-07 -1.5 0 1.311342e-07 -1 0.997642 0.832357
-1.532089 -1.285575 -1.5 -0.7660445 -0.6427876 -8.429141e-08 0.834310 0.669024
0 1.967012e-07 -1.5 0 1.311342e-07 -1 0.835691 0.667643
-1.285575 -1.532089 -1.5 -0.6427875 -0.7660445 -1.004546e-07 0.999023 0.830976
0 1.967012e-07 -1.5 0 1.311342e-07 -1 0.164309 0.665690
-0.9999999 -1.732051 -1.5 -0.5000001 -0.8660254 -1.135655e-07 0.000977 0.502358
0 1.967012e-07 -1.5 0 1.311342e-07 -1 0.002358 0.500977
-0.6840402 -1.879385 -1.5 -0.3420202 -0.9396926 -1.232258e-07 0.165690 0.664309
0 1.967012e-07 -1.5 0 1.311342e-07 -1 0.167643 0.502358
-0.3472964 -1.969615 -1.5 -0.1736481 -0.9848078 -1.29142e-07 0.167643 0.665690
0 1.967012e-07 -1.5 0 1.311342e-07 -1 0.169024 0.500977
-3.67394e-16 -2 -1.5 0 -1 -1.311342e-07 0.332357 0.664309
0 1.967012e-07 -1.5 0 1.311342e-07 -1 0.334310 0.502358
0.3472964 -1.969615 -1.5 0.1736481 -0.9848078 -1.29142e-07 0.334310 0.665690
0 1.967012e-07 -1.5 0 1.311342e-07 -1 0.335691 0.500977
0.6840402 -1.879385 -1.5 0.3420202 -0.9396926 -1.232258e-07 0.499023 0.664309
0 1.967012e-07 -1.5 0 1.311342e-07 -1 0.664309 0.665690
0.9999999 -1.732051 -1.5 0.5000001 -0.8660254 -1.135655e-07 0.500977 0.502358
0 1.967012e-07 -1.5 0 1.311342e-07 -1 0.502358 0.500977
1.285575 -1.532089 -1.5 0.6427875 -0.7660445 -1.004546e-07 0.665690 0.664309
0 1.967012e-07 -1.5 0 1.311342e-07 -1 0.830976 0.665690
1.532089 -1.285575 -1.5 0.7660445 -0.6427876 -8.429141e-08 0.667643 0.502358
0 1.967012e-07 -1.5 0 1.311342e-07 -1 0.669024 0.500977
1.732051 -0.9999998 -1.5 0.8660253 -0.5000001 -6.55671e-08 0.832357 0.664309
0 1.967012e-07 -1.5 0 1.311342e-07 -1 0.997642 0.665690
1.879385 -0.6840401 -1.5 0.9396926 -0.3420202 -4.485054e-08 0.834310 0.502358
0 1.967012e-07 -1.5 0 1.311342e-07 -1 0.999023 0.664309
2 1.967012e-07 -1.5 1 0 0 0.835691 0.500977
1.969615 -0.3472962 -1.5 0.9848078 -0.1736481 -2.27712e-08 0.999023 0.500977
2 1.967012e-07 -1.5 1 0 0 0.000977 0.499023
1.969615 0.3472965 -1.5 0.9848078 0.1736481 2.27712e-08 0.000977 0.335691
0 -1.967012e-07 1.5 0 -1.788077e-07 1 0.002358 0.334310
1.969615 0.3472965 -1.5 0.9848078 0.1736481 2.27712e-08 0.165690 0.334310
1.879385 0.6840405 -1.5 0.9396926 0.3420202 4.485054e-08 0.165690 0.497642
0 -1.967012e-07 1.5 0 -1.788077e-07 1 0.330976 0.499023
1.879385 0.6840405 -1.5 0.9396926 0.3420202 4.485054e-08 0.167643 0.499023
1.732051 1 -1.5 0.8660253 0.5000001 6.55671e-08 0.167643 0.335691
0 -1.967012e-07 1.5 0 -1.788077e-07 1 0.169024 0.334310
1.732051 1 -1.5 0.8660253 0.5000001 6.55671e-08 0.332357 0.334310
1.532089 1.285575 -1.5 0.7660445 0.6427876 8.429141e-08 0.332357 0.497642
0 -1.967012e-07 1.5 0 -1.788077e-07 1 0.497642 0.499023
1.532089 1.285575 -1.5 0.7660445 0.6427876 8.429141e-08 0.334310 0.499023
1.285575 1.532089 -1.5 0.6427875 0.7660445 1.004546e-07 0.334310 0.335691
0 -1.967012e-07 1.5 0 -1.788077e-07 1 0.335691 0.334310
1.285575 1.532089 -1.5 0.6427875 0.7660445 1.004546e-07 0.499023 0.334310
0.9999999 1.732051 -1.5 0.5000001 0.8660254 1.135655e-07 0.499023 0.497642
0 -1.967012e-07 1.5 0 -1.788077e-07 1 0.664309 0.499023
0.9999999 1.732051 -1.5 0.5000001 0.8660254 1.135655e-07 0.500977 0.499023
0.6840402 1.879385 -1.5 0.3420202 0.9396926 1.232258e-07 0.500977 0.335691
0 -1.967012e-07 1.5 0 -1.788077e-07 1 0.502358 0.334310
0.6840402 1.879385 -1.5 0.3420202 0.9396926 1.232258e-07 0.665690 0.334310
0.3472964 1.969615 -1.5 0.1736481 0.9848078 1.29142e-07 0.665690 0.497642
0 -1.967012e-07 1.5 0 -1.788077e-07 1 0.830976 0.499023
0.3472964 1.969615 -1.5 0.1736481 0.9848078 1.29142e-07 0.667643 0.499023
1.224647e-16 2 -1.5 0 1 1.311342e-07 0.667643 0.335691
0 -1.967012e-07 1.5 0 -1.788077e-07 1 0.669024 0.334310
1.224647e-16 2 -1.5 0 1 1.311342e-07 0.832357 0.334310
-0.3472964 1.969615 -1.5 -0.1736481 0.9848078 1.29142e-07 0.832357 0.497642
0 -1.967012e-07 1.5 0 -1.788077e-07 1 0.997642 0.499023
-0.3472964 1.969615 -1.5 -0.1736481 0.9848078 1.29142e-07 0.834310 0.499023
-0.6840402 1.879385 -1.5 -0.3420202 0.9396926 1.232258e-07 0.834310 0.335691
0 -1.967012e-07 1.5 0 -1.788077e-07 1 0.835691 0.334310
-0.6840402 1.879385 -1.5 -0.3420202 0.9396926 1.232258e-07 0.999023 0.334310
-0.9999999 1.732051 -1.5 -0.5000001 0.8660254 1.135655e-07 0.999023 0.497642
0 -1.967012e-07 1.5 0 -1.788077e-07 1 0.164309 0.332357
-0.9999999 1.732051 -1.5 -0.5000001 0.8660254 1.135655e-07 0.000977 0.332357
-1.285575 1.532089 -1.5 -0.6427875 0.7660445 1.004546e-07 0.000977 0.169024
0 -1.967012e-07 1.5 0 -1.788077e-07 1 0.002358 0.167643
-1.285575 1.532089 -1.5 -0.6427875 0.7660445 1.004546e-07 0.165690 0.167643
-1.532089 1.285575 -1.5 -0.7660445 0.6427876 8.429141e-08 0.165690 0.330976
0 -1.967012e-07 1.5 0 -1.788077e-07 1 0.330976 0.332357
-1.532089 1.285575 -1.5 -0.7660445 0.6427876 8.429141e-08 0.167643 0.332357
-1.732051 1 -1.5 -0.8660253 0.5000001 6.55671e-08 0.167643 0.169024
0 -1.967012e-07 1.5 0 -1.788077e-07 1 0.169024 0.167643
-1.732051 1 -1.5 -0.8660253 0.5000001 6.55671e-08 0.332357 0.167643
-1.879385 0.6840405 -1.5 -0.9396926 0.3420202 4.485054e-08 0.332357 0.330976
0 -1.967012e-07 1.5 0 -1.788077e-07 1 0.497642 0.332357
-1.879385 0.6840405 -1.5 -0.9396926 0.3420202 4.485054e-08 0.334310 0.332357
-1.969615 0.3472965 -1.5 -0.9848078 0.1736481 2.27712e-08 0.334310 0.169024
0 -1.967012e-07 1.5 0 -1.788077e-07 1 0.335691 0.167643
-1.969615 0.3472965 -1.5 -0.9848078 0.1736481 2.27712e-08 0.499023 0.167643
-2 1.967012e-07 -1.5 -1 0 0 0.499023 0.330976
0 -1.967012e-07 1.5 0 -1.788077e-07 1 0.664309 0.332357
-2 1.967012e-07 -1.5 -1 0 0 0.500977 0.332357
-1.969615 -0.3472962 -1.5 -0.9848078 -0.1736481 -2.27712e-08 0.500977 0.169024
0 -1.967012e-07 1.5 0 -1.788077e-07 1 0.502358 0.167643
-1.969615 -0.3472962 -1.5 -0.9848078 -0.1736481 -2.27712e-08 0.665690 0.167643
-1.879385 -0.6840401 -1.5 -0.9396926 -0.3420202 -4.485054e-08 0.665690 0.330976
0 -1.967012e-07 1.5 0 -1.788077e-07 1 0.830976 0.332357
-1.879385 -0.6840401 -1.5 -0.9396926 -0.3420202 -4.485054e-08 0.667643 0.332357
-1.732051 -0.9999998 -1.5 -0.8660253 -0.5000001 -6.55671e-08 0.667643 0.169024
0 -1.967012e-07 1.5 0 -1.788077e-07 1 0.669024 0.167643
-1.732051 -0.9999998 -1.5 -0.8660253 -0.5000001 -6.55671e-08 0.832357 0.167643
-1.532089 -1.285575 -1.5 -0.7660445 -0.6427876 -8.429141e-08 0.832357 0.330976
0 -1.967012e-07 1.5 0 -1.788077e-07 1 0.997642 0.332357
-1.532089 -1.285575 -1.5 -0.7660445 -0.6427876 -8.429141e-08 0.834310 0.332357
-1.285575 -1.532089 -1.5 -0.6427875 -0.7660445 -1.004546e-07 0.834310 0.169024
0 -1.967012e-07 1.5 0 -1.788077e-07 1 0.835691 0.167643
-1.285575 -1.532089 -1.5 -0.6427875 -0.7660445 -1.004546e-07 0.999023 0.167643
-0.9999999 -1.732051 -1.5 -0.5000001 -0.8660254 -1.135655e-07 0.999023 0.330976
0 -1.967012e-07 1.5 0 -1.788077e-07 1 0.164309 0.165690
-0.9999999 -1.732051 -1.5 -0.5000001 -0.8660254 -1.135655e-07 0.000977 0.165690
-0.6840402 -1.879385 -1.5 -0.3420202 -0.9396926 -1.232258e-07 0.000977 0.002358
0 -1.967012e-07 1.5 0 -1.788077e-07 1 0.002358 0.000977
-0.6840402 -1.879385 -1.5 -0.3420202 -0.9396926 -1.232258e-07 0.165690 0.000977
-0.3472964 -1.969615 -1.5 -0.1736481 -0.9848078 -1.29142e-07 0.165690 0.164309
0 -1.967012e-07 1.5 0 -1.788077e-07 1 0.330976 0.165690
-0.3472964 -1.969615 -1.5 -0.1736481 -0.9848078 -1.29142e-07 0.167643 0.165690
-3.67394e-16 -2 -1.5 0 -1 -1.311342e-07 0.167643 0.002358
0 -1.967012e-07 1.5 0 -1.788077e-07 1 0.169024 0.000977
-3.67394e-16 -2 -1.5 0 -1 -1.311342e-07 0.332357 0.000977
0.3472964 -1.969615 -1.5 0.1736481 -0.9848078 -1.29142e-07 0.332357 0.164309
0 -1.967012e-07 1.5 0 -1.788077e-07 1 0.497642 0.165690
0.3472964 -1.969615 -1.5 0.1736481 -0.9848078 -1.29142e-07 0.334310 0.165690
0.6840402 -1.879385 -1.5 0.3420202 -0.9396926 -1.232258e-07 0.334310 0.002358
0 -1.967012e-07 1.5 0 -1.788077e-07 1 0.335691 0.000977
0.6840402 -1.879385 -1.5 0.3420202 -0.9396926 -1.232258e-07 0.499023 0.000977
0.9999999 -1.732051 -1.5 0.5000001 -0.8660254 -1.135655e-07 0.499023 0.164309
0 -1.967012e-07 1.5 0 -1.788077e-07 1 0.664309 0.165690
0.9999999 -1.732051 -1.5 0.5000001 -0.8660254 -1.135655e-07 0.500977 0.165690
1.285575 -1.532089 -1.5 0.6427875 -0.7660445 -1.004546e-07 0.500977 0.002358
0 -1.967012e-07 1.5 0 -1.788077e-07 1 0.502358 0.000977
1.285575 -1.532089 -1.5 0.6427875 -0.7660445 -1.004546e-07 0.665690 0.000977
1.532089 -1.285575 -1.5 0.7660445 -0.6427876 -8.429141e-08 0.665690 0.164309
0 -1.967012e-07 1.5 0 -1.788077e-07 1 0.830976 0.165690
1.532089 -1.285575 -1.5 0.7660445 -0.6427876 -8.429141e-08 0.667643 0.165690
1.732051 -0.9999998 -1.5 0.8660253 -0.5000001 -6.55671e-08 0.667643 0.002358
0 -1.967012e-07 1.5 0 -1.788077e-07 1 0.669024 0.000977
1.732051 -0.9999998 -1.5 0.8660253 -0.5000001 -6.55671e-08 0.832357 0.000977
1.879385 -0.6840401 -1.5 0.9396926 -0.3420202 -4.485054e-08 0.832357 0.164309
0 -1.967012e-07 1.5 0 -1.788077e-07 1 0.997642 0.165690
1.879385 -0.6840401 -1.5 0.9396926 -0.3420202 -4.485054e-08 0.834310 0.165690
1.969615 -0.3472962 -1.5 0.9848078 -0.1736481 -2.27712e-08 0.834310 0.002358
0 -1.967012e-07 1.5 0 -1.788077e-07 1 0.835691 0.000977
1.969615 -0.3472962 -1.5 0.9848078 -0.1736481 -2.27712e-08 0.999023 0.000977
2 1.967012e-07 -1.5 1 0 0 0.999023 0.164309
3 1 3 2 
3 38 4 39 
3 40 5 41 
3 42 6 43 
3 44 7 45 
3 46 8 47 
3 48 9 49 
3 50 10 51 
3 52 11 53 
3 54 12 55 
3 56 13 57 
3 58 14 59 
3 60 15 61 
3 62 16 63 
3 64 17 65 
3 66 18 67 
3 68 19 69 
3 70 20 71 
3 72 21 73 
3 74 22 75 
3 76 23 77 
3 78 24 79 
3 80 25 81 
3 82 26 83 
3 84 27 85 
3 86 28 87 
3 88 29 89 
3 90 30 91 
3 92 31 93 
3 94 32 95 
3 96 33 97 
3 98 34 99 
3 100 35 101 
3 102 36 103 
3 104 37 105 
3 106 107 108 
3 0 109 110 
3 111 112 113 
3 114 115 116 
3 117 118 119 
3 120 121 122 
3 123 124 125 
3 126 127 128 
3 129 130 131 
3 132 133 134 
3 135 136 137 
3 138 139 140 
3 141 142 143 
3 144 145 146 
3 147 148 149 
3 150 151 152 
3 153 154 155 
3 156 157 158 
3 159 160 161 
3 162 163 164 
3 165 166 167 
3 168 169 170 
3 171 172 173 
3 174 175 176 
3 177 178 179 
3 180 181 182 
3 183 184 185 
3 186 187 188 
3 189 190 191 
3 192 193 194 
3 195 196 197 
3 198 199 200 
3 201 202 203 
3 204 205 206 
3 207 208 209 
3 210 211 212 
3 213 214 215 
