ply
format ascii 1.0
comment VCGLIB generated
element vertex 24
property float x
property float y
property float z
property float nx
property float ny
property float nz
property float texture_u
property float texture_v
element face 8
property list uchar int vertex_indices
end_header
1 0 0 1 0 0 0.497642 0.999023
0 1 0 0 1 0 0.000977 0.999023
0 0 1 0 0 1 0.000977 0.502358
-1 0 0 -1 0 0 0.497642 0.499023
0 -1 0 0 -1 0 0.499023 0.997642
0 0 -1 0 0 -1 0.500977 0.502358
1 0 0 1 0 0 0.002358 0.500977
0 0 1 0 0 1 0.499023 0.500977
1 0 0 1 0 0 0.997642 0.999023
0 -1 0 0 -1 0 0.500977 0.999023
1 0 0 1 0 0 0.502358 0.500977
0 0 -1 0 0 -1 0.999023 0.500977
0 1 0 0 1 0 0.999023 0.997642
0 1 0 0 1 0 0.000977 0.499023
0 0 -1 0 0 -1 0.000977 0.002358
-1 0 0 -1 0 0 0.002358 0.000977
0 0 -1 0 0 -1 0.499023 0.000977
0 -1 0 0 -1 0 0.499023 0.497642
-1 0 0 -1 0 0 0.997642 0.499023
0 -1 0 0 -1 0 0.500977 0.499023
0 0 1 0 0 1 0.500977 0.002358
-1 0 0 -1 0 0 0.502358 0.000977
0 0 1 0 0 1 0.999023 0.000977
0 1 0 0 1 0 0.999023 0.497642
3 0 1 2 
3 6 7 4 
3 8 9 5 
3 10 11 12 
3 3 13 14 
3 15 16 17 
3 18 19 20 
3 21 22 23 
